<mxfile host="app.diagrams.net" modified="2024-05-02T16:35:23.751Z" agent="Mozilla/5.0 (Windows NT 10.0; Win64; x64) AppleWebKit/537.36 (KHTML, like Gecko) Chrome/124.0.0.0 Safari/537.36" etag="N5FwQ-rVQeQct-xpRT8-" version="24.3.1" type="device">
  <diagram name="Página-1" id="DmR4HnSS0A0DGSq67xSu">
    <mxGraphModel dx="1059" dy="605" grid="1" gridSize="10" guides="1" tooltips="1" connect="1" arrows="1" fold="1" page="1" pageScale="1" pageWidth="1920" pageHeight="1200" math="0" shadow="0">
      <root>
        <mxCell id="0" />
        <mxCell id="1" parent="0" />
        <mxCell id="-HL6odCvfBnh84j1bHyE-16" value="" style="edgeStyle=none;rounded=0;orthogonalLoop=1;jettySize=auto;html=1;strokeColor=default;align=center;verticalAlign=middle;fontFamily=Helvetica;fontSize=11;fontColor=default;labelBackgroundColor=default;endArrow=none;endFill=0;" edge="1" parent="1" source="-HL6odCvfBnh84j1bHyE-1" target="-HL6odCvfBnh84j1bHyE-15">
          <mxGeometry relative="1" as="geometry" />
        </mxCell>
        <mxCell id="-HL6odCvfBnh84j1bHyE-33" value="" style="edgeStyle=none;rounded=0;orthogonalLoop=1;jettySize=auto;html=1;strokeColor=default;align=center;verticalAlign=middle;fontFamily=Helvetica;fontSize=11;fontColor=default;labelBackgroundColor=default;endArrow=none;endFill=0;" edge="1" parent="1" source="-HL6odCvfBnh84j1bHyE-1" target="-HL6odCvfBnh84j1bHyE-32">
          <mxGeometry relative="1" as="geometry" />
        </mxCell>
        <mxCell id="-HL6odCvfBnh84j1bHyE-1" value="&lt;font style=&quot;font-size: 15px;&quot;&gt;usuarios&lt;/font&gt;" style="rounded=0;whiteSpace=wrap;html=1;" vertex="1" parent="1">
          <mxGeometry x="390" y="200" width="120" height="40" as="geometry" />
        </mxCell>
        <mxCell id="-HL6odCvfBnh84j1bHyE-10" style="edgeStyle=none;rounded=0;orthogonalLoop=1;jettySize=auto;html=1;exitX=0.5;exitY=1;exitDx=0;exitDy=0;entryX=0.75;entryY=0;entryDx=0;entryDy=0;strokeColor=default;align=center;verticalAlign=middle;fontFamily=Helvetica;fontSize=11;fontColor=default;labelBackgroundColor=default;endArrow=none;endFill=0;" edge="1" parent="1" source="-HL6odCvfBnh84j1bHyE-2" target="-HL6odCvfBnh84j1bHyE-1">
          <mxGeometry relative="1" as="geometry" />
        </mxCell>
        <mxCell id="-HL6odCvfBnh84j1bHyE-2" value="&lt;u&gt;&lt;font style=&quot;font-size: 15px;&quot;&gt;ID&lt;/font&gt;&lt;/u&gt;" style="ellipse;whiteSpace=wrap;html=1;align=center;" vertex="1" parent="1">
          <mxGeometry x="430" y="80" width="100" height="60" as="geometry" />
        </mxCell>
        <mxCell id="-HL6odCvfBnh84j1bHyE-9" style="edgeStyle=none;rounded=0;orthogonalLoop=1;jettySize=auto;html=1;exitX=0.5;exitY=1;exitDx=0;exitDy=0;entryX=0.25;entryY=0;entryDx=0;entryDy=0;strokeColor=default;align=center;verticalAlign=middle;fontFamily=Helvetica;fontSize=11;fontColor=default;labelBackgroundColor=default;endArrow=none;endFill=0;" edge="1" parent="1" source="-HL6odCvfBnh84j1bHyE-3" target="-HL6odCvfBnh84j1bHyE-1">
          <mxGeometry relative="1" as="geometry" />
        </mxCell>
        <mxCell id="-HL6odCvfBnh84j1bHyE-3" value="&lt;span style=&quot;font-size: 15px;&quot;&gt;nombre&lt;/span&gt;" style="ellipse;whiteSpace=wrap;html=1;" vertex="1" parent="1">
          <mxGeometry x="320" y="80" width="100" height="60" as="geometry" />
        </mxCell>
        <mxCell id="-HL6odCvfBnh84j1bHyE-8" style="rounded=0;orthogonalLoop=1;jettySize=auto;html=1;exitX=1;exitY=1;exitDx=0;exitDy=0;entryX=0;entryY=0;entryDx=0;entryDy=0;endArrow=none;endFill=0;" edge="1" parent="1" source="-HL6odCvfBnh84j1bHyE-4" target="-HL6odCvfBnh84j1bHyE-1">
          <mxGeometry relative="1" as="geometry" />
        </mxCell>
        <mxCell id="-HL6odCvfBnh84j1bHyE-4" value="contraseña" style="ellipse;whiteSpace=wrap;html=1;" vertex="1" parent="1">
          <mxGeometry x="190" y="90" width="100" height="60" as="geometry" />
        </mxCell>
        <mxCell id="-HL6odCvfBnh84j1bHyE-11" style="edgeStyle=none;rounded=0;orthogonalLoop=1;jettySize=auto;html=1;exitX=1;exitY=0.5;exitDx=0;exitDy=0;entryX=0;entryY=0.5;entryDx=0;entryDy=0;strokeColor=default;align=center;verticalAlign=middle;fontFamily=Helvetica;fontSize=11;fontColor=default;labelBackgroundColor=default;endArrow=none;endFill=0;" edge="1" parent="1" source="-HL6odCvfBnh84j1bHyE-6" target="-HL6odCvfBnh84j1bHyE-1">
          <mxGeometry relative="1" as="geometry" />
        </mxCell>
        <mxCell id="-HL6odCvfBnh84j1bHyE-6" value="perfiles" style="ellipse;whiteSpace=wrap;html=1;" vertex="1" parent="1">
          <mxGeometry x="190" y="190" width="100" height="60" as="geometry" />
        </mxCell>
        <mxCell id="-HL6odCvfBnh84j1bHyE-12" style="edgeStyle=none;rounded=0;orthogonalLoop=1;jettySize=auto;html=1;exitX=1;exitY=0;exitDx=0;exitDy=0;strokeColor=default;align=center;verticalAlign=middle;fontFamily=Helvetica;fontSize=11;fontColor=default;labelBackgroundColor=default;endArrow=none;endFill=0;" edge="1" parent="1" source="-HL6odCvfBnh84j1bHyE-7" target="-HL6odCvfBnh84j1bHyE-1">
          <mxGeometry relative="1" as="geometry" />
        </mxCell>
        <mxCell id="-HL6odCvfBnh84j1bHyE-7" value="suscripcion" style="ellipse;whiteSpace=wrap;html=1;" vertex="1" parent="1">
          <mxGeometry x="200" y="270" width="100" height="60" as="geometry" />
        </mxCell>
        <mxCell id="-HL6odCvfBnh84j1bHyE-18" value="" style="edgeStyle=none;rounded=0;orthogonalLoop=1;jettySize=auto;html=1;strokeColor=default;align=center;verticalAlign=middle;fontFamily=Helvetica;fontSize=11;fontColor=default;labelBackgroundColor=default;endArrow=none;endFill=0;" edge="1" parent="1" source="-HL6odCvfBnh84j1bHyE-15" target="-HL6odCvfBnh84j1bHyE-17">
          <mxGeometry relative="1" as="geometry" />
        </mxCell>
        <mxCell id="-HL6odCvfBnh84j1bHyE-15" value="&lt;font style=&quot;font-size: 15px;&quot;&gt;Crean&lt;/font&gt;" style="rhombus;whiteSpace=wrap;html=1;rounded=0;" vertex="1" parent="1">
          <mxGeometry x="880" y="185" width="100" height="70" as="geometry" />
        </mxCell>
        <mxCell id="-HL6odCvfBnh84j1bHyE-20" style="edgeStyle=none;rounded=0;orthogonalLoop=1;jettySize=auto;html=1;entryX=0;entryY=1;entryDx=0;entryDy=0;strokeColor=default;align=center;verticalAlign=middle;fontFamily=Helvetica;fontSize=11;fontColor=default;labelBackgroundColor=default;endArrow=none;endFill=0;" edge="1" parent="1" source="-HL6odCvfBnh84j1bHyE-17" target="-HL6odCvfBnh84j1bHyE-19">
          <mxGeometry relative="1" as="geometry" />
        </mxCell>
        <mxCell id="-HL6odCvfBnh84j1bHyE-48" value="" style="edgeStyle=none;rounded=0;orthogonalLoop=1;jettySize=auto;html=1;strokeColor=default;align=center;verticalAlign=middle;fontFamily=Helvetica;fontSize=11;fontColor=default;labelBackgroundColor=default;endArrow=none;endFill=0;" edge="1" parent="1" source="-HL6odCvfBnh84j1bHyE-17" target="-HL6odCvfBnh84j1bHyE-47">
          <mxGeometry relative="1" as="geometry" />
        </mxCell>
        <mxCell id="-HL6odCvfBnh84j1bHyE-17" value="&lt;font style=&quot;font-size: 15px;&quot;&gt;Listas&lt;/font&gt;" style="whiteSpace=wrap;html=1;rounded=0;" vertex="1" parent="1">
          <mxGeometry x="1340" y="200" width="120" height="40" as="geometry" />
        </mxCell>
        <mxCell id="-HL6odCvfBnh84j1bHyE-19" value="Peliculas&lt;span style=&quot;color: rgba(0, 0, 0, 0); font-family: monospace; font-size: 0px; text-align: start; text-wrap: nowrap;&quot;&gt;%3CmxGraphModel%3E%3Croot%3E%3CmxCell%20id%3D%220%22%2F%3E%3CmxCell%20id%3D%221%22%20parent%3D%220%22%2F%3E%3CmxCell%20id%3D%222%22%20value%3D%22%22%20style%3D%22ellipse%3BwhiteSpace%3Dwrap%3Bhtml%3D1%3B%22%20vertex%3D%221%22%20parent%3D%221%22%3E%3CmxGeometry%20x%3D%22480%22%20y%3D%22280%22%20width%3D%22100%22%20height%3D%2260%22%20as%3D%22geometry%22%2F%3E%3C%2FmxCell%3E%3C%2Froot%3E%3C%2FmxGraphModel%3E&lt;/span&gt;" style="ellipse;whiteSpace=wrap;html=1;" vertex="1" parent="1">
          <mxGeometry x="1490" y="80" width="100" height="60" as="geometry" />
        </mxCell>
        <mxCell id="-HL6odCvfBnh84j1bHyE-23" style="edgeStyle=none;rounded=0;orthogonalLoop=1;jettySize=auto;html=1;exitX=0;exitY=1;exitDx=0;exitDy=0;strokeColor=default;align=center;verticalAlign=middle;fontFamily=Helvetica;fontSize=11;fontColor=default;labelBackgroundColor=default;endArrow=none;endFill=0;entryX=1;entryY=0;entryDx=0;entryDy=0;" edge="1" parent="1" source="-HL6odCvfBnh84j1bHyE-21" target="-HL6odCvfBnh84j1bHyE-17">
          <mxGeometry relative="1" as="geometry" />
        </mxCell>
        <mxCell id="-HL6odCvfBnh84j1bHyE-21" value="series" style="ellipse;whiteSpace=wrap;html=1;" vertex="1" parent="1">
          <mxGeometry x="1620" y="100" width="100" height="60" as="geometry" />
        </mxCell>
        <mxCell id="-HL6odCvfBnh84j1bHyE-25" style="edgeStyle=none;rounded=0;orthogonalLoop=1;jettySize=auto;html=1;exitX=0;exitY=0.5;exitDx=0;exitDy=0;entryX=1;entryY=0.5;entryDx=0;entryDy=0;strokeColor=default;align=center;verticalAlign=middle;fontFamily=Helvetica;fontSize=11;fontColor=default;labelBackgroundColor=default;endArrow=none;endFill=0;" edge="1" parent="1" source="-HL6odCvfBnh84j1bHyE-24" target="-HL6odCvfBnh84j1bHyE-17">
          <mxGeometry relative="1" as="geometry" />
        </mxCell>
        <mxCell id="-HL6odCvfBnh84j1bHyE-24" value="Documentales" style="ellipse;whiteSpace=wrap;html=1;" vertex="1" parent="1">
          <mxGeometry x="1590" y="190" width="100" height="60" as="geometry" />
        </mxCell>
        <mxCell id="-HL6odCvfBnh84j1bHyE-27" style="edgeStyle=none;rounded=0;orthogonalLoop=1;jettySize=auto;html=1;exitX=0.5;exitY=1;exitDx=0;exitDy=0;strokeColor=default;align=center;verticalAlign=middle;fontFamily=Helvetica;fontSize=11;fontColor=default;labelBackgroundColor=default;endArrow=none;endFill=0;" edge="1" parent="1" source="-HL6odCvfBnh84j1bHyE-26" target="-HL6odCvfBnh84j1bHyE-17">
          <mxGeometry relative="1" as="geometry" />
        </mxCell>
        <mxCell id="-HL6odCvfBnh84j1bHyE-26" value="&lt;u&gt;Nombre&lt;/u&gt;" style="ellipse;whiteSpace=wrap;html=1;" vertex="1" parent="1">
          <mxGeometry x="1350" y="80" width="100" height="60" as="geometry" />
        </mxCell>
        <mxCell id="-HL6odCvfBnh84j1bHyE-28" value="(0,M)" style="text;html=1;align=center;verticalAlign=middle;whiteSpace=wrap;rounded=0;fontFamily=Helvetica;fontSize=11;fontColor=default;labelBackgroundColor=default;" vertex="1" parent="1">
          <mxGeometry x="1130" y="190" width="60" height="30" as="geometry" />
        </mxCell>
        <mxCell id="-HL6odCvfBnh84j1bHyE-30" value="(0,1)" style="text;html=1;align=center;verticalAlign=middle;whiteSpace=wrap;rounded=0;fontFamily=Helvetica;fontSize=11;fontColor=default;labelBackgroundColor=default;" vertex="1" parent="1">
          <mxGeometry x="670" y="190" width="60" height="30" as="geometry" />
        </mxCell>
        <mxCell id="-HL6odCvfBnh84j1bHyE-31" value="(1,M)" style="text;html=1;align=center;verticalAlign=middle;whiteSpace=wrap;rounded=0;fontFamily=Helvetica;fontSize=11;fontColor=default;labelBackgroundColor=default;" vertex="1" parent="1">
          <mxGeometry x="900" y="155" width="60" height="30" as="geometry" />
        </mxCell>
        <mxCell id="-HL6odCvfBnh84j1bHyE-35" value="" style="edgeStyle=none;rounded=0;orthogonalLoop=1;jettySize=auto;html=1;strokeColor=default;align=center;verticalAlign=middle;fontFamily=Helvetica;fontSize=11;fontColor=default;labelBackgroundColor=default;endArrow=none;endFill=0;" edge="1" parent="1" source="-HL6odCvfBnh84j1bHyE-32" target="-HL6odCvfBnh84j1bHyE-34">
          <mxGeometry relative="1" as="geometry" />
        </mxCell>
        <mxCell id="-HL6odCvfBnh84j1bHyE-32" value="Acceso" style="rhombus;whiteSpace=wrap;html=1;rounded=0;" vertex="1" parent="1">
          <mxGeometry x="397.5" y="330" width="105" height="75" as="geometry" />
        </mxCell>
        <mxCell id="-HL6odCvfBnh84j1bHyE-34" value="Catalogo" style="whiteSpace=wrap;html=1;rounded=0;" vertex="1" parent="1">
          <mxGeometry x="390" y="490" width="120" height="40" as="geometry" />
        </mxCell>
        <mxCell id="-HL6odCvfBnh84j1bHyE-38" style="edgeStyle=none;rounded=0;orthogonalLoop=1;jettySize=auto;html=1;exitX=1;exitY=0.5;exitDx=0;exitDy=0;strokeColor=default;align=center;verticalAlign=middle;fontFamily=Helvetica;fontSize=11;fontColor=default;labelBackgroundColor=default;endArrow=none;endFill=0;" edge="1" parent="1" source="-HL6odCvfBnh84j1bHyE-37" target="-HL6odCvfBnh84j1bHyE-34">
          <mxGeometry relative="1" as="geometry" />
        </mxCell>
        <mxCell id="-HL6odCvfBnh84j1bHyE-37" value="&lt;u&gt;generos&lt;/u&gt;" style="ellipse;whiteSpace=wrap;html=1;" vertex="1" parent="1">
          <mxGeometry x="210" y="480" width="100" height="60" as="geometry" />
        </mxCell>
        <mxCell id="-HL6odCvfBnh84j1bHyE-40" style="edgeStyle=none;rounded=0;orthogonalLoop=1;jettySize=auto;html=1;exitX=1;exitY=0;exitDx=0;exitDy=0;entryX=0;entryY=1;entryDx=0;entryDy=0;strokeColor=default;align=center;verticalAlign=middle;fontFamily=Helvetica;fontSize=11;fontColor=default;labelBackgroundColor=default;endArrow=none;endFill=0;" edge="1" parent="1" source="-HL6odCvfBnh84j1bHyE-39" target="-HL6odCvfBnh84j1bHyE-34">
          <mxGeometry relative="1" as="geometry" />
        </mxCell>
        <mxCell id="-HL6odCvfBnh84j1bHyE-39" value="cinema" style="ellipse;whiteSpace=wrap;html=1;" vertex="1" parent="1">
          <mxGeometry x="190" y="570" width="100" height="60" as="geometry" />
        </mxCell>
        <mxCell id="-HL6odCvfBnh84j1bHyE-43" style="edgeStyle=none;rounded=0;orthogonalLoop=1;jettySize=auto;html=1;entryX=0.25;entryY=1;entryDx=0;entryDy=0;strokeColor=default;align=center;verticalAlign=middle;fontFamily=Helvetica;fontSize=11;fontColor=default;labelBackgroundColor=default;endArrow=none;endFill=0;" edge="1" parent="1" source="-HL6odCvfBnh84j1bHyE-41" target="-HL6odCvfBnh84j1bHyE-34">
          <mxGeometry relative="1" as="geometry" />
        </mxCell>
        <mxCell id="-HL6odCvfBnh84j1bHyE-41" value="televisivo" style="ellipse;whiteSpace=wrap;html=1;" vertex="1" parent="1">
          <mxGeometry x="300" y="590" width="100" height="60" as="geometry" />
        </mxCell>
        <mxCell id="-HL6odCvfBnh84j1bHyE-44" value="(1,M)" style="text;html=1;align=center;verticalAlign=middle;whiteSpace=wrap;rounded=0;fontFamily=Helvetica;fontSize=11;fontColor=default;labelBackgroundColor=default;" vertex="1" parent="1">
          <mxGeometry x="450" y="430" width="60" height="30" as="geometry" />
        </mxCell>
        <mxCell id="-HL6odCvfBnh84j1bHyE-45" value="(1,M)" style="text;html=1;align=center;verticalAlign=middle;whiteSpace=wrap;rounded=0;fontFamily=Helvetica;fontSize=11;fontColor=default;labelBackgroundColor=default;" vertex="1" parent="1">
          <mxGeometry x="450" y="270" width="60" height="30" as="geometry" />
        </mxCell>
        <mxCell id="-HL6odCvfBnh84j1bHyE-46" value="(N,M)" style="text;html=1;align=center;verticalAlign=middle;whiteSpace=wrap;rounded=0;fontFamily=Helvetica;fontSize=11;fontColor=default;labelBackgroundColor=default;" vertex="1" parent="1">
          <mxGeometry x="502.5" y="352.5" width="60" height="30" as="geometry" />
        </mxCell>
        <mxCell id="-HL6odCvfBnh84j1bHyE-50" value="" style="edgeStyle=none;rounded=0;orthogonalLoop=1;jettySize=auto;html=1;strokeColor=default;align=center;verticalAlign=middle;fontFamily=Helvetica;fontSize=11;fontColor=default;labelBackgroundColor=default;endArrow=none;endFill=0;" edge="1" parent="1" source="-HL6odCvfBnh84j1bHyE-47" target="-HL6odCvfBnh84j1bHyE-49">
          <mxGeometry relative="1" as="geometry" />
        </mxCell>
        <mxCell id="-HL6odCvfBnh84j1bHyE-47" value="encuentran" style="rhombus;whiteSpace=wrap;html=1;rounded=0;" vertex="1" parent="1">
          <mxGeometry x="1350" y="330" width="100" height="75" as="geometry" />
        </mxCell>
        <mxCell id="-HL6odCvfBnh84j1bHyE-55" style="edgeStyle=none;rounded=0;orthogonalLoop=1;jettySize=auto;html=1;entryX=0;entryY=1;entryDx=0;entryDy=0;strokeColor=default;align=center;verticalAlign=middle;fontFamily=Helvetica;fontSize=11;fontColor=default;labelBackgroundColor=default;endArrow=none;endFill=0;exitX=1;exitY=0;exitDx=0;exitDy=0;" edge="1" parent="1" source="-HL6odCvfBnh84j1bHyE-49" target="-HL6odCvfBnh84j1bHyE-54">
          <mxGeometry relative="1" as="geometry">
            <mxPoint x="1470" y="510" as="sourcePoint" />
          </mxGeometry>
        </mxCell>
        <mxCell id="-HL6odCvfBnh84j1bHyE-57" style="edgeStyle=none;rounded=0;orthogonalLoop=1;jettySize=auto;html=1;exitX=1;exitY=0.5;exitDx=0;exitDy=0;strokeColor=default;align=center;verticalAlign=middle;fontFamily=Helvetica;fontSize=11;fontColor=default;labelBackgroundColor=default;endArrow=none;endFill=0;" edge="1" parent="1" source="-HL6odCvfBnh84j1bHyE-49" target="-HL6odCvfBnh84j1bHyE-56">
          <mxGeometry relative="1" as="geometry" />
        </mxCell>
        <mxCell id="-HL6odCvfBnh84j1bHyE-59" style="edgeStyle=none;rounded=0;orthogonalLoop=1;jettySize=auto;html=1;exitX=1;exitY=1;exitDx=0;exitDy=0;strokeColor=default;align=center;verticalAlign=middle;fontFamily=Helvetica;fontSize=11;fontColor=default;labelBackgroundColor=default;endArrow=none;endFill=0;" edge="1" parent="1" source="-HL6odCvfBnh84j1bHyE-49" target="-HL6odCvfBnh84j1bHyE-58">
          <mxGeometry relative="1" as="geometry" />
        </mxCell>
        <mxCell id="-HL6odCvfBnh84j1bHyE-73" style="edgeStyle=none;rounded=0;orthogonalLoop=1;jettySize=auto;html=1;exitX=0;exitY=0.5;exitDx=0;exitDy=0;entryX=1;entryY=0.5;entryDx=0;entryDy=0;strokeColor=default;align=center;verticalAlign=middle;fontFamily=Helvetica;fontSize=11;fontColor=default;labelBackgroundColor=default;endArrow=none;endFill=0;" edge="1" parent="1" source="-HL6odCvfBnh84j1bHyE-49" target="-HL6odCvfBnh84j1bHyE-71">
          <mxGeometry relative="1" as="geometry" />
        </mxCell>
        <mxCell id="-HL6odCvfBnh84j1bHyE-49" value="Peliculas y series" style="whiteSpace=wrap;html=1;rounded=0;" vertex="1" parent="1">
          <mxGeometry x="1340" y="490" width="120" height="40" as="geometry" />
        </mxCell>
        <mxCell id="-HL6odCvfBnh84j1bHyE-51" value="(1,M)" style="text;html=1;align=center;verticalAlign=middle;whiteSpace=wrap;rounded=0;fontFamily=Helvetica;fontSize=11;fontColor=default;labelBackgroundColor=default;" vertex="1" parent="1">
          <mxGeometry x="1340" y="430" width="60" height="30" as="geometry" />
        </mxCell>
        <mxCell id="-HL6odCvfBnh84j1bHyE-52" value="(0,1)" style="text;html=1;align=center;verticalAlign=middle;whiteSpace=wrap;rounded=0;fontFamily=Helvetica;fontSize=11;fontColor=default;labelBackgroundColor=default;" vertex="1" parent="1">
          <mxGeometry x="1340" y="270" width="60" height="30" as="geometry" />
        </mxCell>
        <mxCell id="-HL6odCvfBnh84j1bHyE-53" value="(1,M)" style="text;html=1;align=center;verticalAlign=middle;whiteSpace=wrap;rounded=0;fontFamily=Helvetica;fontSize=11;fontColor=default;labelBackgroundColor=default;" vertex="1" parent="1">
          <mxGeometry x="1290" y="352.5" width="60" height="30" as="geometry" />
        </mxCell>
        <mxCell id="-HL6odCvfBnh84j1bHyE-54" value="&lt;u&gt;Genero&lt;/u&gt;" style="ellipse;whiteSpace=wrap;html=1;" vertex="1" parent="1">
          <mxGeometry x="1520" y="400" width="100" height="60" as="geometry" />
        </mxCell>
        <mxCell id="-HL6odCvfBnh84j1bHyE-56" value="individuales" style="ellipse;whiteSpace=wrap;html=1;" vertex="1" parent="1">
          <mxGeometry x="1550" y="480" width="100" height="60" as="geometry" />
        </mxCell>
        <mxCell id="-HL6odCvfBnh84j1bHyE-58" value="temporadas&lt;span style=&quot;color: rgba(0, 0, 0, 0); font-family: monospace; font-size: 0px; text-align: start; text-wrap: nowrap;&quot;&gt;%3CmxGraphModel%3E%3Croot%3E%3CmxCell%20id%3D%220%22%2F%3E%3CmxCell%20id%3D%221%22%20parent%3D%220%22%2F%3E%3CmxCell%20id%3D%222%22%20value%3D%22Actores%22%20style%3D%22ellipse%3BwhiteSpace%3Dwrap%3Bhtml%3D1%3B%22%20vertex%3D%221%22%20parent%3D%221%22%3E%3CmxGeometry%20x%3D%221790%22%20y%3D%22500%22%20width%3D%22100%22%20height%3D%2260%22%20as%3D%22geometry%22%2F%3E%3C%2FmxCell%3E%3C%2Froot%3E%3C%2FmxGraphModel%3E&lt;/span&gt;" style="ellipse;whiteSpace=wrap;html=1;" vertex="1" parent="1">
          <mxGeometry x="1480" y="570" width="100" height="60" as="geometry" />
        </mxCell>
        <mxCell id="-HL6odCvfBnh84j1bHyE-61" style="edgeStyle=none;rounded=0;orthogonalLoop=1;jettySize=auto;html=1;exitX=0.5;exitY=0;exitDx=0;exitDy=0;entryX=0.5;entryY=1;entryDx=0;entryDy=0;strokeColor=default;align=center;verticalAlign=middle;fontFamily=Helvetica;fontSize=11;fontColor=default;labelBackgroundColor=default;endArrow=none;endFill=0;" edge="1" parent="1" source="-HL6odCvfBnh84j1bHyE-60" target="-HL6odCvfBnh84j1bHyE-49">
          <mxGeometry relative="1" as="geometry" />
        </mxCell>
        <mxCell id="-HL6odCvfBnh84j1bHyE-60" value="Calificacion" style="ellipse;whiteSpace=wrap;html=1;" vertex="1" parent="1">
          <mxGeometry x="1350" y="620" width="100" height="60" as="geometry" />
        </mxCell>
        <mxCell id="-HL6odCvfBnh84j1bHyE-75" value="" style="edgeStyle=none;rounded=0;orthogonalLoop=1;jettySize=auto;html=1;strokeColor=default;align=center;verticalAlign=middle;fontFamily=Helvetica;fontSize=11;fontColor=default;labelBackgroundColor=default;endArrow=none;endFill=0;" edge="1" parent="1" source="-HL6odCvfBnh84j1bHyE-71" target="-HL6odCvfBnh84j1bHyE-74">
          <mxGeometry relative="1" as="geometry" />
        </mxCell>
        <mxCell id="-HL6odCvfBnh84j1bHyE-71" value="encuentran" style="rhombus;whiteSpace=wrap;html=1;rounded=0;" vertex="1" parent="1">
          <mxGeometry x="1110" y="472.5" width="100" height="75" as="geometry" />
        </mxCell>
        <mxCell id="-HL6odCvfBnh84j1bHyE-74" value="Actores" style="rounded=0;whiteSpace=wrap;html=1;" vertex="1" parent="1">
          <mxGeometry x="870" y="490" width="120" height="40" as="geometry" />
        </mxCell>
        <mxCell id="-HL6odCvfBnh84j1bHyE-78" style="edgeStyle=none;rounded=0;orthogonalLoop=1;jettySize=auto;html=1;exitX=0.5;exitY=0;exitDx=0;exitDy=0;entryX=0.5;entryY=1;entryDx=0;entryDy=0;strokeColor=default;align=center;verticalAlign=middle;fontFamily=Helvetica;fontSize=11;fontColor=default;labelBackgroundColor=default;endArrow=none;endFill=0;" edge="1" parent="1" source="-HL6odCvfBnh84j1bHyE-77" target="-HL6odCvfBnh84j1bHyE-34">
          <mxGeometry relative="1" as="geometry" />
        </mxCell>
        <mxCell id="-HL6odCvfBnh84j1bHyE-77" value="filtros" style="ellipse;whiteSpace=wrap;html=1;" vertex="1" parent="1">
          <mxGeometry x="410" y="600" width="100" height="60" as="geometry" />
        </mxCell>
        <mxCell id="-HL6odCvfBnh84j1bHyE-85" style="edgeStyle=none;rounded=0;orthogonalLoop=1;jettySize=auto;html=1;entryX=0.5;entryY=0;entryDx=0;entryDy=0;strokeColor=default;align=center;verticalAlign=middle;fontFamily=Helvetica;fontSize=11;fontColor=default;labelBackgroundColor=default;endArrow=none;endFill=0;" edge="1" parent="1" source="-HL6odCvfBnh84j1bHyE-79" target="-HL6odCvfBnh84j1bHyE-74">
          <mxGeometry relative="1" as="geometry" />
        </mxCell>
        <mxCell id="-HL6odCvfBnh84j1bHyE-79" value="&lt;u&gt;Nombre&lt;/u&gt;" style="ellipse;whiteSpace=wrap;html=1;" vertex="1" parent="1">
          <mxGeometry x="880" y="360" width="100" height="60" as="geometry" />
        </mxCell>
        <mxCell id="-HL6odCvfBnh84j1bHyE-86" style="edgeStyle=none;rounded=0;orthogonalLoop=1;jettySize=auto;html=1;exitX=1;exitY=1;exitDx=0;exitDy=0;entryX=0.25;entryY=0;entryDx=0;entryDy=0;strokeColor=default;align=center;verticalAlign=middle;fontFamily=Helvetica;fontSize=11;fontColor=default;labelBackgroundColor=default;endArrow=none;endFill=0;" edge="1" parent="1" source="-HL6odCvfBnh84j1bHyE-80" target="-HL6odCvfBnh84j1bHyE-74">
          <mxGeometry relative="1" as="geometry" />
        </mxCell>
        <mxCell id="-HL6odCvfBnh84j1bHyE-80" value="Apellidos" style="ellipse;whiteSpace=wrap;html=1;" vertex="1" parent="1">
          <mxGeometry x="750" y="390" width="100" height="60" as="geometry" />
        </mxCell>
        <mxCell id="-HL6odCvfBnh84j1bHyE-87" style="edgeStyle=none;rounded=0;orthogonalLoop=1;jettySize=auto;html=1;exitX=1;exitY=0.5;exitDx=0;exitDy=0;entryX=0;entryY=0.5;entryDx=0;entryDy=0;strokeColor=default;align=center;verticalAlign=middle;fontFamily=Helvetica;fontSize=11;fontColor=default;labelBackgroundColor=default;endArrow=none;endFill=0;" edge="1" parent="1" source="-HL6odCvfBnh84j1bHyE-81" target="-HL6odCvfBnh84j1bHyE-74">
          <mxGeometry relative="1" as="geometry" />
        </mxCell>
        <mxCell id="-HL6odCvfBnh84j1bHyE-81" value="Nombre artistico" style="ellipse;whiteSpace=wrap;html=1;" vertex="1" parent="1">
          <mxGeometry x="720" y="480" width="100" height="60" as="geometry" />
        </mxCell>
        <mxCell id="-HL6odCvfBnh84j1bHyE-88" style="edgeStyle=none;rounded=0;orthogonalLoop=1;jettySize=auto;html=1;exitX=1;exitY=0;exitDx=0;exitDy=0;entryX=0.25;entryY=1;entryDx=0;entryDy=0;strokeColor=default;align=center;verticalAlign=middle;fontFamily=Helvetica;fontSize=11;fontColor=default;labelBackgroundColor=default;endArrow=none;endFill=0;" edge="1" parent="1" source="-HL6odCvfBnh84j1bHyE-82" target="-HL6odCvfBnh84j1bHyE-74">
          <mxGeometry relative="1" as="geometry" />
        </mxCell>
        <mxCell id="-HL6odCvfBnh84j1bHyE-82" value="Genero&lt;span style=&quot;color: rgba(0, 0, 0, 0); font-family: monospace; font-size: 0px; text-align: start; text-wrap: nowrap;&quot;&gt;%3CmxGraphModel%3E%3Croot%3E%3CmxCell%20id%3D%220%22%2F%3E%3CmxCell%20id%3D%221%22%20parent%3D%220%22%2F%3E%3CmxCell%20id%3D%222%22%20value%3D%22Calificacion%22%20style%3D%22ellipse%3BwhiteSpace%3Dwrap%3Bhtml%3D1%3B%22%20vertex%3D%221%22%20parent%3D%221%22%3E%3CmxGeometry%20x%3D%221350%22%20y%3D%22590%22%20width%3D%22100%22%20height%3D%2260%22%20as%3D%22geometry%22%2F%3E%3C%2FmxCell%3E%3C%2Froot%3E%3C%2FmxGraphModel%3E&lt;/span&gt;&lt;span style=&quot;color: rgba(0, 0, 0, 0); font-family: monospace; font-size: 0px; text-align: start; text-wrap: nowrap;&quot;&gt;%3CmxGraphModel%3E%3Croot%3E%3CmxCell%20id%3D%220%22%2F%3E%3CmxCell%20id%3D%221%22%20parent%3D%220%22%2F%3E%3CmxCell%20id%3D%222%22%20value%3D%22Calificacion%22%20style%3D%22ellipse%3BwhiteSpace%3Dwrap%3Bhtml%3D1%3B%22%20vertex%3D%221%22%20parent%3D%221%22%3E%3CmxGeometry%20x%3D%221350%22%20y%3D%22590%22%20width%3D%22100%22%20height%3D%2260%22%20as%3D%22geometry%22%2F%3E%3C%2FmxCell%3E%3C%2Froot%3E%3C%2FmxGraphModel%3E&lt;/span&gt;" style="ellipse;whiteSpace=wrap;html=1;" vertex="1" parent="1">
          <mxGeometry x="780" y="570" width="100" height="60" as="geometry" />
        </mxCell>
        <mxCell id="-HL6odCvfBnh84j1bHyE-84" style="edgeStyle=none;rounded=0;orthogonalLoop=1;jettySize=auto;html=1;exitX=1;exitY=0;exitDx=0;exitDy=0;entryX=0.25;entryY=1;entryDx=0;entryDy=0;strokeColor=default;align=center;verticalAlign=middle;fontFamily=Helvetica;fontSize=11;fontColor=default;labelBackgroundColor=default;endArrow=none;endFill=0;" edge="1" parent="1" source="-HL6odCvfBnh84j1bHyE-83" target="-HL6odCvfBnh84j1bHyE-49">
          <mxGeometry relative="1" as="geometry" />
        </mxCell>
        <mxCell id="-HL6odCvfBnh84j1bHyE-83" value="Sinopsis" style="ellipse;whiteSpace=wrap;html=1;" vertex="1" parent="1">
          <mxGeometry x="1230" y="580" width="100" height="60" as="geometry" />
        </mxCell>
        <mxCell id="-HL6odCvfBnh84j1bHyE-90" value="(0,M)" style="text;html=1;align=center;verticalAlign=middle;whiteSpace=wrap;rounded=0;fontFamily=Helvetica;fontSize=11;fontColor=default;labelBackgroundColor=default;" vertex="1" parent="1">
          <mxGeometry x="1250" y="480" width="60" height="30" as="geometry" />
        </mxCell>
        <mxCell id="-HL6odCvfBnh84j1bHyE-91" value="(0,1)" style="text;html=1;align=center;verticalAlign=middle;whiteSpace=wrap;rounded=0;fontFamily=Helvetica;fontSize=11;fontColor=default;labelBackgroundColor=default;" vertex="1" parent="1">
          <mxGeometry x="1020" y="480" width="60" height="30" as="geometry" />
        </mxCell>
        <mxCell id="-HL6odCvfBnh84j1bHyE-92" value="(1,M)" style="text;html=1;align=center;verticalAlign=middle;whiteSpace=wrap;rounded=0;fontFamily=Helvetica;fontSize=11;fontColor=default;labelBackgroundColor=default;" vertex="1" parent="1">
          <mxGeometry x="1130" y="430" width="60" height="30" as="geometry" />
        </mxCell>
      </root>
    </mxGraphModel>
  </diagram>
</mxfile>
